<svg width="91" height="91" viewBox="0 0 91 91" fill="none" xmlns="http://www.w3.org/2000/svg">
<path d="M62.2355 4.6626C57.8818 4.6626 53.9242 6.43406 50.9199 9.32483C47.9128 6.43406 43.958 4.6626 39.6043 4.6626C30.2294 4.6626 22.631 12.8101 22.631 22.8626V43.2844C22.631 49.5338 27.6971 54.6 33.9465 54.6V22.8626C33.9465 19.5108 36.4784 16.7959 39.6043 16.7959C42.7303 16.7959 45.2621 19.5108 45.2621 22.8626V61.4847C45.2621 67.7342 50.3283 72.8003 56.5777 72.8003V22.8626C56.5777 19.5108 59.1096 16.7959 62.2355 16.7959C65.3614 16.7959 67.8933 19.5108 67.8933 22.8626V79.6844C67.8933 85.9338 72.9595 91 79.2089 91V22.8626C79.2089 12.8101 71.6105 4.6626 62.2355 4.6626Z" fill="#256C2C"/>
<path d="M11.3155 0H11.6007C17.6926 0 22.631 5.00643 22.631 11.0983C22.631 11.6664 22.1705 12.1333 21.6024 12.1333C15.9211 12.1333 11.3155 7.52773 11.3155 1.84643V0Z" fill="#256C2C"/>
<path d="M0 20.7135L0.727393 19.9335C4.74467 15.6259 11.258 15.6259 15.2753 19.9335C15.677 20.3643 15.677 21.0627 15.2753 21.4935C11.258 25.8011 4.74468 25.8011 0.727394 21.4935L0 20.7135Z" fill="#256C2C"/>
<path d="M79.6844 12.6399V10.7935C79.6844 5.11217 84.29 0.506569 89.9713 0.506569C90.5394 0.506569 91 0.973471 91 1.5416C91 7.63346 86.0616 12.6399 79.9697 12.6399H79.6844Z" fill="#256C2C"/>
</svg>
